<?xml version="1.0" standalone="no"?>
<!DOCTYPE svg PUBLIC "-//W3C//DTD SVG 20010904//EN"
 "http://www.w3.org/TR/2001/REC-SVG-20010904/DTD/svg10.dtd">
<svg version="1.0" xmlns="http://www.w3.org/2000/svg"
 width="400.000000pt" height="400.000000pt" viewBox="0 0 400.000000 400.000000"
 preserveAspectRatio="xMidYMid meet">
<metadata>
Created by potrace 1.16, written by Peter Selinger 2001-2019
</metadata>
<g transform="translate(0.000000,400.000000) scale(0.100000,-0.100000)"
fill="#FFFFFF" stroke="none">
<path d="M1780 3990 c-381 -47 -748 -199 -1030 -429 -156 -127 -317 -304 -423
-467 -363 -554 -428 -1259 -172 -1871 256 -611 793 -1048 1460 -1190 121 -25
147 -27 375 -28 256 0 310 6 490 50 269 67 517 186 742 356 106 80 287 261
367 367 170 226 288 471 356 742 45 181 50 234 50 490 -1 228 -3 254 -28 375
-86 406 -266 741 -549 1026 -292 294 -652 482 -1068 559 -131 25 -442 35 -570
20z m395 -130 c711 -67 1324 -537 1577 -1209 120 -319 150 -693 82 -1026 -17
-87 -75 -275 -84 -275 -4 0 -44 93 -89 208 -108 269 -228 517 -275 570 -49 54
-109 77 -163 63 -116 -31 -239 -194 -420 -555 -139 -277 -211 -384 -280 -412
-49 -21 -63 -17 -81 24 -15 32 -17 75 -17 317 0 154 4 480 9 725 11 570 0 693
-76 784 -81 98 -178 122 -273 67 -169 -97 -238 -257 -521 -1201 -159 -530
-220 -707 -268 -778 -40 -60 -67 -66 -90 -18 -34 72 -39 134 -37 512 3 487
-16 691 -85 896 -45 135 -92 168 -190 130 -76 -28 -137 -74 -263 -196 -123
-120 -254 -273 -395 -458 -49 -65 -93 -118 -97 -118 -12 0 -11 136 1 261 59
577 363 1078 847 1396 344 226 774 332 1188 293z m49 -875 c28 -30 52 -112 68
-232 12 -89 15 -417 9 -948 -3 -316 10 -458 56 -599 22 -65 36 -90 74 -128 79
-79 125 -77 209 10 72 74 128 169 292 492 140 278 189 361 246 416 98 95 182
-10 321 -401 34 -93 89 -225 122 -291 l60 -122 -30 -60 c-47 -92 -161 -259
-243 -352 -276 -316 -661 -535 -1073 -611 -157 -29 -406 -36 -560 -15 -426 57
-791 234 -1087 528 -266 264 -438 582 -518 955 l-21 101 63 64 c35 34 126 144
203 243 237 305 413 497 470 511 40 10 73 -4 90 -37 37 -71 45 -164 55 -629
10 -510 20 -628 65 -784 36 -123 115 -207 180 -190 46 12 110 88 168 201 99
195 158 361 353 997 191 622 263 810 336 878 37 35 62 35 92 3z"/>
</g>
</svg>
